<svg width="305" height="163" viewBox="0 0 305 163" fill="none" xmlns="http://www.w3.org/2000/svg">
<path d="M4.80848 14.124L1.73948 21.549H0.188477L9.16448 0H10.0555L19.0975 21.549H17.4145L14.3125 14.124H4.80848ZM9.52748 2.442C9.19748 3.432 8.90048 4.257 8.63648 4.917L5.33648 12.837H13.7845L10.5175 4.95C10.0115 3.718 9.68148 2.882 9.52748 2.442Z" fill="black"/>
<path d="M71.3259 20.427H70.4349L64.1979 5.28C63.9339 4.686 63.6699 3.993 63.4059 3.201C63.4059 3.223 63.3839 3.344 63.3399 3.564C63.3179 3.784 63.2849 4.081 63.2409 4.455C63.1969 4.807 63.1529 5.104 63.1089 5.346L60.6339 21.549H59.1489L62.6469 0H63.5379L70.2039 15.807C70.7319 17.127 70.9959 17.82 70.9959 17.886C71.1499 17.424 71.4469 16.742 71.8869 15.84L79.3119 0H80.2029L83.4699 21.549H81.8859L79.5429 5.28C79.3889 4.202 79.3119 3.487 79.3119 3.135L78.3549 5.313L71.3259 20.427Z" fill="black"/>
<path d="M127.09 21.549V0.231001C128.982 0.0770003 130.588 0 131.908 0C133.932 0 135.604 0.528 136.924 1.584C138.244 2.618 138.904 4.103 138.904 6.039C138.904 7.337 138.53 8.536 137.782 9.636C137.034 10.736 136.187 11.627 135.241 12.309C137.859 15.785 139.476 17.864 140.092 18.546C141.346 19.844 142.71 20.581 144.184 20.757L144.151 21.78C142.919 21.758 141.918 21.582 141.148 21.252C140.378 20.9 139.608 20.317 138.838 19.503C138.09 18.689 136.429 16.5 133.855 12.936C132.073 12.936 130.324 12.881 128.608 12.771V21.549H127.09ZM133.03 11.682C133.888 11.682 134.812 11.11 135.802 9.966C136.792 8.822 137.287 7.491 137.287 5.973C137.287 4.455 136.77 3.3 135.736 2.508C134.702 1.716 133.36 1.32 131.71 1.32C130.83 1.32 129.796 1.364 128.608 1.452V11.517C130.192 11.627 131.666 11.682 133.03 11.682Z" fill="black"/>
<path d="M185.117 21.549V0.132H186.635V21.549H185.117Z" fill="black"/>
<path d="M236.337 1.485H229.077V0.132H245.083V1.485H237.822V21.549H236.337V1.485Z" fill="black"/>
<path d="M286.533 14.124L283.464 21.549H281.913L290.889 0H291.78L300.822 21.549H299.139L296.037 14.124H286.533ZM291.252 2.442C290.922 3.432 290.625 4.257 290.361 4.917L287.061 12.837H295.509L292.242 4.95C291.736 3.718 291.406 2.882 291.252 2.442Z" fill="black"/>
<path d="M10.956 158.061L18.117 141.132H19.701L10.494 162.681H9.603L0.395996 141.132H2.046L10.131 160.173C10.241 159.843 10.516 159.139 10.956 158.061Z" fill="black"/>
<path d="M41.3944 162.549V141.132H42.9124V162.549H41.3944Z" fill="black"/>
<path d="M68.1288 141.231C69.6908 141.099 71.2968 141.033 72.9468 141.033C74.5968 141.033 76.0048 141.429 77.1708 142.221C78.3588 143.013 78.9528 144.168 78.9528 145.686C78.9528 146.83 78.6448 147.886 78.0288 148.854C77.4128 149.822 76.6648 150.559 75.7848 151.065C77.2148 151.483 78.4028 152.231 79.3488 153.309C80.2948 154.387 80.7678 155.608 80.7678 156.972C80.7678 158.864 80.1628 160.294 78.9528 161.262C77.7648 162.23 76.0818 162.714 73.9038 162.714C71.7258 162.714 69.8008 162.637 68.1288 162.483V141.231ZM71.1318 151.725L69.6468 151.758V161.229C70.5928 161.317 72.1218 161.361 74.2338 161.361C75.6638 161.361 76.8408 160.965 77.7648 160.173C78.7108 159.359 79.1838 158.347 79.1838 157.137C79.1838 155.905 78.7108 154.838 77.7648 153.936C76.8408 153.012 75.6308 152.363 74.1348 151.989C73.3648 151.813 72.3638 151.725 71.1318 151.725ZM77.4678 145.653C77.4678 144.575 77.0168 143.75 76.1148 143.178C75.2128 142.584 74.1348 142.287 72.8808 142.287C71.6268 142.287 70.5488 142.32 69.6468 142.386V150.471C71.5608 150.471 73.0898 150.526 74.2338 150.636C75.0918 150.174 75.8398 149.503 76.4778 148.623C77.1378 147.721 77.4678 146.731 77.4678 145.653Z" fill="black"/>
<path d="M104.372 162.549V141.231C106.264 141.077 107.87 141 109.19 141C111.214 141 112.886 141.528 114.206 142.584C115.526 143.618 116.186 145.103 116.186 147.039C116.186 148.337 115.812 149.536 115.064 150.636C114.316 151.736 113.469 152.627 112.523 153.309C115.141 156.785 116.758 158.864 117.374 159.546C118.628 160.844 119.992 161.581 121.466 161.757L121.433 162.78C120.201 162.758 119.2 162.582 118.43 162.252C117.66 161.9 116.89 161.317 116.12 160.503C115.372 159.689 113.711 157.5 111.137 153.936C109.355 153.936 107.606 153.881 105.89 153.771V162.549H104.372ZM110.312 152.682C111.17 152.682 112.094 152.11 113.084 150.966C114.074 149.822 114.569 148.491 114.569 146.973C114.569 145.455 114.052 144.3 113.018 143.508C111.984 142.716 110.642 142.32 108.992 142.32C108.112 142.32 107.078 142.364 105.89 142.452V152.517C107.474 152.627 108.948 152.682 110.312 152.682Z" fill="black"/>
<path d="M143.635 155.124L140.566 162.549H139.015L147.991 141H148.882L157.924 162.549H156.241L153.139 155.124H143.635ZM148.354 143.442C148.024 144.432 147.727 145.257 147.463 145.917L144.163 153.837H152.611L149.344 145.95C148.838 144.718 148.508 143.882 148.354 143.442Z" fill="black"/>
<path d="M181.392 142.485H174.132V141.132H190.137V142.485H182.877V162.549H181.392V142.485Z" fill="black"/>
<path d="M211.937 162.549V141.132H213.455V162.549H211.937Z" fill="black"/>
<path d="M248.176 162.879C245.118 162.879 242.555 161.812 240.487 159.678C238.419 157.544 237.385 154.937 237.385 151.857C237.385 148.755 238.419 146.137 240.487 144.003C242.555 141.869 245.118 140.802 248.176 140.802C251.234 140.802 253.797 141.869 255.865 144.003C257.933 146.137 258.967 148.755 258.967 151.857C258.967 154.937 257.933 157.544 255.865 159.678C253.797 161.812 251.234 162.879 248.176 162.879ZM248.176 142.155C245.536 142.155 243.336 143.09 241.576 144.96C239.838 146.83 238.969 149.129 238.969 151.857C238.969 154.563 239.838 156.851 241.576 158.721C243.336 160.569 245.536 161.493 248.176 161.493C250.838 161.493 253.038 160.569 254.776 158.721C256.514 156.851 257.383 154.563 257.383 151.857C257.383 149.129 256.514 146.83 254.776 144.96C253.038 143.09 250.838 142.155 248.176 142.155Z" fill="black"/>
<path d="M282.907 162.549V141H283.633L297.691 157.17C298.197 157.742 298.659 158.314 299.077 158.886C299.517 159.436 299.748 159.722 299.77 159.744C299.726 159.216 299.704 158.182 299.704 156.642V141.132H301.222V162.681H300.496L286.174 146.247L284.359 144.036C284.403 144.476 284.425 145.51 284.425 147.138V162.549H282.907Z" fill="black"/>
<path d="M203.134 80.4716C203.134 82.8034 203.134 85.1353 203.134 87.4671C201.798 87.6753 200.551 87.9251 199.483 88.2166C199.483 85.3851 199.483 82.5536 199.483 79.722C200.551 80.0135 201.798 80.2634 203.134 80.4716Z" fill="#C478FF"/>
<path d="M153.619 78.4728C155.044 78.3895 156.202 78.2646 157.36 78.0981C157.36 82.0122 157.36 85.968 157.36 89.8822C156.202 89.7157 155.044 89.5491 153.619 89.5075C153.619 85.8015 153.619 82.1372 153.619 78.4728Z" fill="#C478FF"/>
<path d="M209.546 81.0961C209.546 83.0116 209.546 84.927 209.546 86.8425C208.922 86.8841 208.299 86.9258 207.587 86.9674C206.963 87.009 206.429 87.0507 205.894 87.134C205.894 85.052 205.894 82.9283 205.894 80.8463C206.429 80.8879 206.963 80.9712 207.587 81.0129C208.299 81.0545 208.922 81.0961 209.546 81.0961Z" fill="#C478FF"/>
<path d="M231.008 82.4286C232.077 82.6785 233.234 82.97 234.481 83.3031C234.481 83.7611 234.481 84.1775 234.481 84.6356C233.234 84.9687 232.077 85.2602 231.008 85.51C231.008 84.5106 231.008 83.4696 231.008 82.4286Z" fill="#C478FF"/>
<path d="M196.722 89.1327C195.475 89.5907 194.228 90.1321 193.071 90.6734C193.071 86.2179 193.071 81.7624 193.071 77.3069C194.228 77.8482 195.475 78.3479 196.722 78.8476C196.722 82.2621 196.722 85.6766 196.722 89.1327Z" fill="#C478FF"/>
<path d="M215.869 81.2627C215.869 83.0949 215.869 84.927 215.869 86.7592C214.8 86.7592 213.642 86.7592 212.306 86.7592C212.306 84.927 212.306 83.0949 212.306 81.2627C213.642 81.2627 214.8 81.2627 215.869 81.2627Z" fill="#C478FF"/>
<path d="M179.98 73.6009C181.315 73.7258 182.562 73.934 183.631 74.1423C183.631 80.6798 183.631 87.2589 183.631 93.7964C182.473 94.0046 181.315 94.2128 179.98 94.3377C179.98 87.4255 179.98 80.5132 179.98 73.6009Z" fill="#C478FF"/>
<path d="M173.39 73.476C174.547 73.3927 175.705 73.3511 177.13 73.3927C177.13 80.4299 177.13 87.5087 177.13 94.5459C175.794 94.5876 174.547 94.5459 173.39 94.4626C173.39 87.4671 173.39 80.4716 173.39 73.476Z" fill="#C478FF"/>
<path d="M170.54 94.0462C169.204 93.7548 167.957 93.3384 166.799 92.922C166.799 86.9674 166.799 81.0129 166.799 75.0583C167.957 74.6419 169.115 74.2255 170.54 73.9341C170.54 80.6381 170.54 87.3422 170.54 94.0462Z" fill="#C478FF"/>
<path d="M160.209 77.4735C161.545 77.0987 162.792 76.6407 163.95 76.2243C163.95 81.4293 163.95 86.6343 163.95 91.7977C162.792 91.3396 161.634 90.8816 160.209 90.5068C160.209 86.1763 160.209 81.804 160.209 77.4735Z" fill="#C478FF"/>
<path d="M228.336 86.1346C227 86.3844 225.932 86.551 224.863 86.6759C224.863 84.8854 224.863 83.1365 224.863 81.346C225.932 81.4709 227.09 81.6375 228.336 81.8873C228.336 83.2614 228.336 84.6772 228.336 86.1346Z" fill="#C478FF"/>
<path d="M222.102 86.8009C220.945 86.8425 219.787 86.8008 218.54 86.7592C218.54 84.8854 218.54 83.0116 218.54 81.1378C219.787 81.0962 220.945 81.0962 222.102 81.0962C222.102 83.0532 222.102 84.927 222.102 86.8009Z" fill="#C478FF"/>
<path d="M237.064 84.0526C238.31 84.4274 239.468 84.7188 240.448 84.9687C240.448 84.3024 240.448 83.6362 240.448 82.97C239.468 83.2198 238.31 83.5529 237.064 83.886C237.064 83.9693 237.064 84.011 237.064 84.0526Z" fill="#C478FF"/>
<path d="M186.57 74.8085C187.905 75.1833 189.152 75.6413 190.221 76.0577C190.221 81.3044 190.221 86.5927 190.221 91.8393C189.152 92.2973 187.905 92.7138 186.57 93.0885C186.57 87.0091 186.57 80.9296 186.57 74.8085Z" fill="#C478FF"/>
<path d="M290.14 104.373C290.14 90.7983 290.14 77.2236 290.14 63.6489C289.339 63.4824 288.359 63.524 287.29 63.7739C287.29 77.2653 287.29 90.7567 287.29 104.248C288.448 104.456 289.339 104.498 290.14 104.373Z" fill="#C478FF"/>
<path d="M279.988 100.376C279.988 89.4242 279.988 78.4728 279.988 67.5631C278.919 68.3543 277.94 69.1454 277.049 69.9366C277.049 79.3056 277.049 88.6747 277.049 98.0437C277.94 98.7932 278.919 99.5844 279.988 100.376Z" fill="#C478FF"/>
<path d="M285.153 103.415C285.153 90.4652 285.153 77.4735 285.153 64.5234C284.619 64.7732 284.085 65.0231 283.461 65.3562C283.016 65.5644 282.66 65.8142 282.303 66.0224C282.303 77.9731 282.303 89.9239 282.303 101.833C282.66 102.083 283.105 102.291 283.461 102.541C284.085 102.916 284.619 103.207 285.153 103.415Z" fill="#C478FF"/>
<path d="M243.119 85.6349C244.366 85.9264 245.435 86.093 246.503 86.2179C246.503 84.7188 246.503 83.2198 246.503 81.7624C245.435 81.8873 244.366 82.0955 243.119 82.3454C243.119 83.428 243.119 84.5106 243.119 85.6349Z" fill="#C478FF"/>
<path d="M274.734 72.0602C273.665 73.1012 272.686 74.059 271.706 74.975C271.706 80.9712 271.706 86.9258 271.706 92.9219C272.686 93.838 273.665 94.8374 274.734 95.8367C274.734 87.9251 274.734 80.0135 274.734 72.0602Z" fill="#C478FF"/>
<path d="M301.806 69.9366C301.806 79.3056 301.806 88.6747 301.806 98.0437C302.608 98.0437 303.409 98.1686 304.3 98.5017C304.3 88.8412 304.3 79.1807 304.3 69.5202C303.409 69.8117 302.608 69.9366 301.806 69.9366Z" fill="#C478FF"/>
<path d="M266.185 89.216C267.342 89.7157 268.322 90.3403 269.301 91.0065C269.301 86.3428 269.301 81.6375 269.301 76.9738C268.411 77.64 267.342 78.223 266.185 78.7643C266.185 82.2204 266.185 85.7182 266.185 89.216Z" fill="#C478FF"/>
<path d="M295.038 66.5637C294.148 65.7726 293.257 65.0231 292.278 64.4401C292.278 77.4735 292.278 90.5068 292.278 103.54C293.257 102.957 294.148 102.208 295.038 101.417C295.038 89.7989 295.038 78.1813 295.038 66.5637Z" fill="#C478FF"/>
<path d="M254.875 86.8009C255.854 86.8841 256.923 87.0091 258.081 87.134C258.081 85.0103 258.081 82.8867 258.081 80.763C256.923 80.9296 255.854 81.0129 254.875 81.0962C254.875 83.0532 254.875 84.9271 254.875 86.8009Z" fill="#C478FF"/>
<path d="M252.292 81.3044C251.045 81.3876 250.066 81.4293 248.997 81.4709C248.997 83.1365 248.997 84.7605 248.997 86.4261C249.977 86.5094 251.045 86.551 252.292 86.5927C252.292 84.8854 252.292 83.0949 252.292 81.3044Z" fill="#C478FF"/>
<path d="M299.758 98.3352C299.758 88.7579 299.758 79.1807 299.758 69.6035C298.779 69.312 297.888 68.8123 297.087 68.2294C297.087 78.7227 297.087 89.216 297.087 99.7093C297.977 99.168 298.779 98.6683 299.758 98.3352Z" fill="#C478FF"/>
<path d="M260.574 87.592C261.732 87.8002 262.8 88.0501 263.78 88.3415C263.78 85.4267 263.78 82.5536 263.78 79.6388C262.8 79.9302 261.821 80.1801 260.574 80.3883C260.574 82.8034 260.574 85.1769 260.574 87.592Z" fill="#C478FF"/>
<path d="M124.409 72.1019C124.409 80.0135 124.409 87.9668 124.409 95.8784C123.875 95.8784 123.252 95.8784 122.628 95.8368C121.916 95.7951 121.293 95.7535 120.758 95.7118C120.758 87.8835 120.758 80.0968 120.758 72.2685C121.382 72.2268 122.005 72.1435 122.717 72.1435C123.252 72.1019 123.786 72.1019 124.409 72.1019Z" fill="#C478FF"/>
<path d="M32.6831 82.8034C31.6144 82.5119 30.6348 82.2204 29.6552 81.8873C29.6552 83.3031 29.6552 84.7189 29.6552 86.1346C30.6348 85.8015 31.6144 85.4684 32.6831 85.2185C32.6831 84.3857 32.6831 83.5946 32.6831 82.8034Z" fill="#C478FF"/>
<path d="M38.2045 84.1775C38.2045 84.0526 38.2045 83.9277 38.2045 83.8028C37.0468 83.6362 35.9781 83.5113 35.0876 83.3031C35.0876 83.7611 35.0876 84.2192 35.0876 84.6356C35.9781 84.469 37.0468 84.3441 38.2045 84.1775Z" fill="#C478FF"/>
<path d="M27.3398 86.9674C27.3398 84.9687 27.3398 82.97 27.3398 80.9712C26.4492 80.6381 25.4696 80.2217 24.401 79.8053C24.401 82.5952 24.401 85.3434 24.401 88.1333C25.4696 87.7169 26.4492 87.3422 27.3398 86.9674Z" fill="#C478FF"/>
<path d="M43.8149 83.5113C43.8149 83.8028 43.8149 84.1359 43.8149 84.4274C43.3697 84.3857 42.9244 84.3441 42.4791 84.2608C41.8557 84.1775 41.2323 84.1359 40.698 84.0526C40.698 83.9693 40.698 83.9277 40.698 83.8444C41.3214 83.7611 41.8557 83.7195 42.5682 83.6362C42.9244 83.6362 43.3697 83.5529 43.8149 83.5113Z" fill="#C478FF"/>
<path d="M63.8522 78.7643C64.8318 78.5145 65.9895 78.2646 67.2363 78.0564C67.2363 82.0122 67.2363 85.9264 67.2363 89.8822C65.9895 89.674 64.8318 89.4242 63.8522 89.1743C63.8522 85.7182 63.8522 82.2621 63.8522 78.7643Z" fill="#C478FF"/>
<path d="M22.0856 89.0078C22.0856 85.6349 22.0856 82.3037 22.0856 78.9309C21.195 78.5978 20.2154 78.2646 19.2358 77.8899C19.2358 81.929 19.2358 85.9681 19.2358 90.0071C20.2154 89.674 21.195 89.3409 22.0856 89.0078Z" fill="#C478FF"/>
<path d="M14.1597 91.3813C14.9612 91.2563 15.9408 91.0065 17.0094 90.715C17.0094 86.2179 17.0094 81.7208 17.0094 77.2236C15.9408 76.9321 15.0502 76.6823 14.1597 76.5574C14.1597 81.5126 14.1597 86.4677 14.1597 91.3813Z" fill="#C478FF"/>
<path d="M4.54181 90.2153C5.52141 90.3819 6.3229 90.5901 7.21345 90.7983C7.21345 86.2179 7.21345 81.6791 7.21345 77.0987C6.41196 77.3069 5.52141 77.5567 4.54181 77.7233C4.54181 81.8873 4.54181 86.0513 4.54181 90.2153Z" fill="#C478FF"/>
<path d="M12.0224 76.3492C11.0428 76.3492 10.1522 76.4325 9.26166 76.599C9.26166 81.5126 9.26166 86.4261 9.26166 91.3396C10.0632 91.5062 10.9537 91.6311 12.0224 91.5895C12.0224 86.5094 12.0224 81.4293 12.0224 76.3492Z" fill="#C478FF"/>
<path d="M61.2696 88.5081C60.0229 88.175 58.9542 87.8419 57.8856 87.5087C57.8856 85.1769 57.8856 82.8034 57.8856 80.4716C58.8652 80.1384 60.0229 79.8053 61.2696 79.4722C61.2696 82.4703 61.2696 85.51 61.2696 88.5081Z" fill="#C478FF"/>
<path d="M55.303 86.6759C54.2343 86.3428 53.1657 86.0513 52.008 85.7599C52.008 84.5939 52.008 83.3864 52.008 82.2204C53.1657 81.929 54.2343 81.6375 55.303 81.3044C55.303 83.0949 55.303 84.8854 55.303 86.6759Z" fill="#C478FF"/>
<path d="M49.5144 82.7201C49.5144 83.5529 49.5144 84.3857 49.5144 85.2185C48.5348 85.052 47.4662 84.8854 46.3085 84.7188C46.3085 84.2192 46.3085 83.7195 46.3085 83.1782C47.4662 83.0532 48.5348 82.8867 49.5144 82.7201Z" fill="#C478FF"/>
<path d="M0 90.0904C0.890547 89.9655 1.78109 89.9655 2.58259 90.0071C2.58259 85.968 2.58259 81.9706 2.58259 77.9315C1.78109 77.9731 0.890547 77.9731 0 77.8482C0 81.9289 0 86.0097 0 90.0904Z" fill="#C478FF"/>
<path d="M137.5 92.5056C136.254 93.0469 135.096 93.6298 133.76 94.1295C133.76 87.3422 133.76 80.5548 133.76 73.7675C135.096 74.2672 136.254 74.8501 137.5 75.3915C137.5 81.1378 137.5 86.8009 137.5 92.5056Z" fill="#C478FF"/>
<path d="M117.819 72.6432C117.819 80.2217 117.819 87.7586 117.819 95.3371C116.484 95.0872 115.237 94.7541 114.168 94.421C114.168 87.4671 114.168 80.5132 114.168 73.6009C115.237 73.2262 116.484 72.8931 117.819 72.6432Z" fill="#C478FF"/>
<path d="M130.91 72.8514C130.91 80.2633 130.91 87.6753 130.91 95.0872C129.842 95.3787 128.595 95.5869 127.17 95.7118C127.17 87.8835 127.17 80.0551 127.17 72.2268C128.595 72.3517 129.842 72.6016 130.91 72.8514Z" fill="#C478FF"/>
<path d="M147.029 78.2646C148.187 78.3895 149.345 78.4728 150.77 78.5145C150.77 82.1788 150.77 85.8015 150.77 89.4658C149.434 89.5075 148.187 89.5907 147.029 89.7157C147.029 85.8848 147.029 82.0539 147.029 78.2646Z" fill="#C478FF"/>
<path d="M101.255 78.7227C102.591 78.4312 103.749 78.0148 104.906 77.5984C104.906 81.8457 104.906 86.093 104.906 90.3403C103.838 89.9239 102.591 89.5491 101.255 89.216C101.255 85.7182 101.255 82.2204 101.255 78.7227Z" fill="#C478FF"/>
<path d="M111.318 93.2967C110.072 92.7138 108.825 92.1308 107.667 91.5478C107.667 86.4677 107.667 81.4293 107.667 76.3492C108.825 75.7662 110.072 75.1833 111.318 74.6003C111.318 80.888 111.318 87.0923 111.318 93.2967Z" fill="#C478FF"/>
<path d="M94.8433 79.5555C96.1791 79.4722 97.3368 79.3889 98.4055 79.2223C98.4055 82.387 98.4055 85.5516 98.4055 88.7163C97.3368 88.5497 96.09 88.4665 94.8433 88.3832C94.8433 85.4684 94.8433 82.5119 94.8433 79.5555Z" fill="#C478FF"/>
<path d="M85.7597 88.8412C84.4239 89.0494 83.3552 89.2993 82.1975 89.5907C82.1975 85.8431 82.1975 82.1372 82.1975 78.3895C83.2662 78.6394 84.4239 78.8892 85.7597 79.1391C85.7597 82.3454 85.7597 85.5933 85.7597 88.8412Z" fill="#C478FF"/>
<path d="M76.0527 77.3485C77.2995 77.4318 78.4572 77.5984 79.5259 77.8066C79.5259 81.929 79.5259 86.0513 79.5259 90.2153C78.4572 90.4235 77.2995 90.5901 76.0527 90.6734C76.0527 86.1763 76.0527 81.7624 76.0527 77.3485Z" fill="#C478FF"/>
<path d="M88.5204 79.4722C89.589 79.5555 90.7467 79.6388 92.0825 79.6388C92.0825 82.5536 92.0825 85.4267 92.0825 88.3415C90.7467 88.3415 89.589 88.4248 88.5204 88.5081C88.5204 85.4684 88.5204 82.4703 88.5204 79.4722Z" fill="#C478FF"/>
<path d="M144.091 90.1737C142.666 90.4652 141.508 90.8399 140.35 91.298C140.35 86.4261 140.35 81.5542 140.35 76.6823C141.508 77.0987 142.666 77.4735 144.091 77.8066C144.091 81.929 144.091 86.0513 144.091 90.1737Z" fill="#C478FF"/>
<path d="M69.9079 77.64C71.1547 77.4735 72.3124 77.3485 73.3811 77.3069C73.3811 81.7624 73.3811 86.1763 73.3811 90.6317C72.3124 90.5901 71.2437 90.4652 69.9079 90.2986C69.9079 86.093 69.9079 81.8873 69.9079 77.64Z" fill="#C478FF"/>
</svg>
