<svg width="481" height="111" viewBox="0 0 481 111" fill="none" xmlns="http://www.w3.org/2000/svg">
<path d="M480.825 47.0543C478.199 47.8587 478.024 56.9076 475.224 56.9076C472.248 56.9076 472.248 37.6033 469.273 37.6033C466.297 37.6033 466.297 29.5598 463.321 29.5598C460.346 29.5598 460.346 53.087 457.37 53.087C454.394 53.087 454.394 11.462 451.419 11.462C448.443 11.462 448.443 39.212 445.468 39.212C442.492 39.212 442.492 23.3261 439.516 23.3261C436.541 23.3261 436.541 34.3859 433.565 34.3859C430.59 34.3859 430.59 50.4728 427.614 50.4728C424.638 50.4728 424.638 14.6793 421.663 14.6793C418.687 14.6793 418.687 82.2446 415.711 82.2446C412.736 82.2446 412.736 45.2446 409.76 45.2446C406.785 45.2446 406.785 60.9293 403.809 60.9293C400.833 60.9293 400.833 54.0924 397.858 54.0924C394.882 54.0924 394.882 35.1902 391.906 35.1902C388.931 35.1902 388.931 31.7717 385.955 31.7717C382.98 31.7717 382.98 79.0272 380.004 79.0272C377.028 79.0272 377.028 35.5924 374.053 35.5924C371.077 35.5924 371.077 72.7935 368.102 72.7935C365.126 72.7935 365.126 65.9565 362.15 65.9565C359.175 65.9565 359.175 8.24456 356.199 8.24456C353.223 8.24456 353.223 66.5598 350.248 66.5598C347.272 66.5598 347.272 80.6359 344.297 80.6359C341.321 80.6359 341.321 53.8913 338.345 53.8913C335.37 53.8913 335.37 76.8152 332.394 76.8152C329.418 76.8152 329.418 52.2826 326.443 52.2826C323.467 52.2826 322.767 0 319.791 0C316.816 0 316.816 29.3587 313.84 29.3587C310.865 29.3587 310.865 41.2228 307.889 41.2228C304.913 41.2228 304.913 80.4348 301.938 80.4348C298.962 80.4348 298.962 55.2989 295.987 55.2989C293.011 55.2989 293.011 15.0815 290.035 15.0815C287.06 15.0815 287.06 21.1141 284.084 21.1141C281.108 21.1141 281.108 66.7609 278.133 66.7609C275.157 66.7609 275.157 85.0598 272.182 85.0598C269.206 85.0598 269.206 37 266.23 37C263.255 37 263.255 18.2989 260.279 18.2989C257.303 18.2989 257.303 6.83696 254.328 6.83696C251.352 6.83696 251.352 26.5435 248.377 26.5435C245.401 26.5435 245.401 62.337 242.425 62.337C239.45 62.337 239.45 59.3207 236.474 59.3207C233.499 59.3207 233.499 57.5109 230.523 57.5109C227.547 57.5109 227.547 5.22826 224.572 5.22826C221.596 5.22826 221.596 8.64674 218.62 8.64674C215.645 8.64674 215.645 85.2609 212.669 85.2609C209.694 85.2609 209.694 59.9239 206.718 59.9239C203.742 59.9239 203.742 2.41304 200.767 2.41304C197.791 2.41304 197.791 26.5435 194.816 26.5435C191.84 26.5435 191.84 60.3261 188.864 60.3261C185.889 60.3261 185.889 68.1685 182.913 68.1685C179.937 68.1685 179.937 66.3587 176.962 66.3587C173.986 66.3587 173.986 82.4456 171.011 82.4456C168.035 82.4456 168.035 27.75 165.059 27.75C162.084 27.75 162.084 19.7065 159.108 19.7065C156.132 19.7065 156.132 82.8478 153.157 82.8478C150.181 82.8478 150.181 78.0217 147.206 78.0217C144.23 78.0217 144.23 65.5543 141.254 65.5543C138.279 65.5543 138.279 28.3533 135.303 28.3533C132.328 28.3533 132.328 73.5978 129.352 73.5978C126.376 73.5978 126.376 54.6957 123.401 54.6957C120.425 54.6957 120.425 42.6304 117.449 42.6304C114.474 42.6304 114.474 41.4239 111.498 41.4239C108.523 41.4239 108.523 38.4076 105.547 38.4076C102.571 38.4076 102.571 74.2011 99.5957 74.2011C96.6201 74.2011 96.6201 81.038 93.6445 81.038C90.6689 81.038 90.6689 80.4348 87.6932 80.4348C84.7176 80.4348 84.7176 48.663 81.742 48.663C78.7664 48.663 78.7664 17.4946 75.7908 17.4946C72.8151 17.4946 72.8151 67.7663 69.8395 67.7663C66.8639 67.7663 66.8639 68.7717 63.8883 68.7717C60.9127 68.7717 60.9127 42.6304 57.9371 42.6304C54.9614 42.6304 54.9614 17.0924 51.9858 17.0924C49.0102 17.0924 49.0102 71.587 46.0346 71.587C43.059 71.587 43.059 30.7663 40.0833 30.7663C37.1077 30.7663 37.1077 27.5489 34.1321 27.5489C31.1565 27.5489 31.1565 33.3804 28.1809 33.3804C23.805 32.7772 23.8049 10.0543 20.8293 10.0543C17.8537 10.0543 17.8537 14.2772 14.8781 14.2772C11.9025 14.2772 11.9025 54.6957 8.92686 54.6957C5.95124 54.6957 5.95124 70.5815 2.97562 70.5815C1.40029 70.5815 0.700146 72.1902 0 73.7989V111H481V47.0543H480.825Z" fill="white"/>
</svg>
